# xmcd CD database file
#
# Track frame offsets:
#	183
#	12320
#	25708
#	39788
#	51510
#	63110
#	75518
#	90290
#	103830
#	116583
#
# Disc length: 1742 seconds
#
# Revision: 2
# Processed by: cddbd v1.5.2PL0 Copyright (c) Steve Scherf et al.
# Submitted via: CDex 1.70beta2
#
DISCID=6b06cc0a
DTITLE=Campbell, Glen (92) - USA - Classics Collection
DYEAR=1992
DGENRE=Country
TTITLE0=Galveston
TTITLE1=Gentle on my Mind
TTITLE2=Wichita Lineman
TTITLE3=Dreams of the Everyday Housewife
TTITLE4=Hey Little One
TTITLE5=By the Time I Get to Phoenix
TTITLE6=Rhinestone Cowboy
TTITLE7=Southern Nights
TTITLE8=Bonaparte's Retreat
TTITLE9=Country Boy (You Got Your Feet in L.A.)
EXTD=YEAR: 1992
EXTT0=
EXTT1=
EXTT2=
EXTT3=
EXTT4=
EXTT5=
EXTT6=
EXTT7=
EXTT8=
EXTT9=
PLAYORDER=
